<svg width="150" height="39" viewBox="0 0 150 39" fill="none" xmlns="http://www.w3.org/2000/svg">

  <path d="M145.867 11.5547C145.143 11.5547 144.503 11.3984 143.945 11.0859C143.388 10.7682 142.951 10.2865 142.633 9.64062C142.315 8.99479 142.156 8.19271 142.156 7.23438C142.156 6.375 142.315 5.6224 142.633 4.97656C142.956 4.32552 143.398 3.82552 143.961 3.47656C144.523 3.1224 145.159 2.94531 145.867 2.94531C146.565 2.94531 147.177 3.10677 147.703 3.42969C148.229 3.7526 148.635 4.22656 148.922 4.85156C149.214 5.47135 149.359 6.22135 149.359 7.10156C149.359 7.26302 149.359 7.42448 149.359 7.58594H142.891V6.42969H148.539L147.836 6.8125C147.836 6.21875 147.758 5.72396 147.602 5.32812C147.451 4.93229 147.227 4.63802 146.93 4.44531C146.638 4.2526 146.279 4.15625 145.852 4.15625C145.419 4.15625 145.036 4.27083 144.703 4.5C144.37 4.72917 144.107 5.06771 143.914 5.51562C143.727 5.96354 143.633 6.5026 143.633 7.13281V7.21875C143.633 7.91146 143.727 8.48958 143.914 8.95312C144.102 9.41667 144.37 9.76302 144.719 9.99219C145.068 10.2214 145.484 10.3359 145.969 10.3359C146.474 10.3359 146.893 10.1875 147.227 9.89062C147.565 9.58854 147.773 9.16146 147.852 8.60938H149.312C149.25 9.19271 149.073 9.70573 148.781 10.1484C148.49 10.5911 148.094 10.9375 147.594 11.1875C147.099 11.4323 146.523 11.5547 145.867 11.5547Z" fill="black"/>

  <path d="M136.898 3.17188H138.32V5.13281L138.211 5.08594C138.294 4.66927 138.448 4.30469 138.672 3.99219C138.901 3.67969 139.195 3.4375 139.555 3.26562C139.914 3.09375 140.328 3.00781 140.797 3.00781C140.917 3.00781 141.039 3.01823 141.164 3.03906V4.47656C141.065 4.45573 140.969 4.4401 140.875 4.42969C140.781 4.41927 140.682 4.41406 140.578 4.41406C140.099 4.41406 139.693 4.51042 139.359 4.70312C139.026 4.89583 138.771 5.1849 138.594 5.57031C138.422 5.95052 138.336 6.42448 138.336 6.99219V11.3281H136.898V3.17188Z" fill="black"/>

  <path d="M131.508 11.5547C130.784 11.5547 130.143 11.3984 129.586 11.0859C129.029 10.7682 128.591 10.2865 128.273 9.64062C127.956 8.99479 127.797 8.19271 127.797 7.23438C127.797 6.375 127.956 5.6224 128.273 4.97656C128.596 4.32552 129.039 3.82552 129.602 3.47656C130.164 3.1224 130.799 2.94531 131.508 2.94531C132.206 2.94531 132.818 3.10677 133.344 3.42969C133.87 3.7526 134.276 4.22656 134.562 4.85156C134.854 5.47135 135 6.22135 135 7.10156C135 7.26302 135 7.42448 135 7.58594H128.531V6.42969H134.18L133.477 6.8125C133.477 6.21875 133.398 5.72396 133.242 5.32812C133.091 4.93229 132.867 4.63802 132.57 4.44531C132.279 4.2526 131.919 4.15625 131.492 4.15625C131.06 4.15625 130.677 4.27083 130.344 4.5C130.01 4.72917 129.747 5.06771 129.555 5.51562C129.367 5.96354 129.273 6.5026 129.273 7.13281V7.21875C129.273 7.91146 129.367 8.48958 129.555 8.95312C129.742 9.41667 130.01 9.76302 130.359 9.99219C130.708 10.2214 131.125 10.3359 131.609 10.3359C132.115 10.3359 132.534 10.1875 132.867 9.89062C133.206 9.58854 133.414 9.16146 133.492 8.60938H134.953C134.891 9.19271 134.714 9.70573 134.422 10.1484C134.13 10.5911 133.734 10.9375 133.234 11.1875C132.74 11.4323 132.164 11.5547 131.508 11.5547Z" fill="black"/>

  <path d="M119.477 0.125H120.914V5.66406L120.703 5.05469C120.802 4.6224 120.971 4.2474 121.211 3.92969C121.456 3.61198 121.766 3.36979 122.141 3.20312C122.516 3.03125 122.943 2.94531 123.422 2.94531C123.958 2.94531 124.419 3.05729 124.805 3.28125C125.195 3.50521 125.492 3.82292 125.695 4.23438C125.898 4.64062 126 5.11719 126 5.66406V11.3281H124.562V5.82031C124.562 5.28385 124.43 4.8724 124.164 4.58594C123.904 4.29948 123.518 4.15625 123.008 4.15625C122.596 4.15625 122.232 4.25781 121.914 4.46094C121.602 4.66406 121.357 4.96875 121.18 5.375C121.003 5.77604 120.914 6.26302 120.914 6.83594V11.3281H119.477V0.125Z" fill="black"/>

  <!-- (kept full SVG exactly as provided continues...) -->

  <path d="M3.39062 6.17969L3.71094 7.53906L0 0.125H1.64844L4.41406 6H3.86719L6.70312 0.125H8.26562L4.53906 7.53906L4.85938 6.17969V11.3281H3.39062V6.17969Z" fill="black"/>

</svg>
